<mxfile host="app.diagrams.net" modified="2024-04-21T13:30:16.320Z" agent="Mozilla/5.0 (Macintosh; Intel Mac OS X 10_15_7) AppleWebKit/537.36 (KHTML, like Gecko) Chrome/123.0.0.0 Safari/537.36" etag="IKLgEWtZ4U8NNuJvlbaa" version="24.2.5" type="github">
  <diagram id="C5RBs43oDa-KdzZeNtuy" name="Page-1">
    <mxGraphModel dx="984" dy="659" grid="1" gridSize="10" guides="1" tooltips="1" connect="1" arrows="1" fold="1" page="1" pageScale="1" pageWidth="827" pageHeight="1169" math="0" shadow="0">
      <root>
        <mxCell id="WIyWlLk6GJQsqaUBKTNV-0" />
        <mxCell id="WIyWlLk6GJQsqaUBKTNV-1" parent="WIyWlLk6GJQsqaUBKTNV-0" />
        <mxCell id="LmptgclhA3fd6WnhmWBI-0" value="" style="rounded=1;whiteSpace=wrap;html=1;" vertex="1" parent="WIyWlLk6GJQsqaUBKTNV-1">
          <mxGeometry x="220" y="600" width="120" height="230" as="geometry" />
        </mxCell>
        <mxCell id="LmptgclhA3fd6WnhmWBI-1" value="" style="rounded=1;whiteSpace=wrap;html=1;fillColor=#000000;strokeColor=#b85450;fontStyle=1" vertex="1" parent="WIyWlLk6GJQsqaUBKTNV-1">
          <mxGeometry x="260" y="610" width="40" height="10" as="geometry" />
        </mxCell>
        <mxCell id="LmptgclhA3fd6WnhmWBI-2" value="&lt;span style=&quot;font-size: 15px;&quot;&gt;Hey, ivan!&amp;nbsp;&lt;/span&gt;" style="text;strokeColor=none;fillColor=none;html=1;fontSize=24;fontStyle=1;verticalAlign=middle;align=left;" vertex="1" parent="WIyWlLk6GJQsqaUBKTNV-1">
          <mxGeometry x="230" y="650" width="100" height="40" as="geometry" />
        </mxCell>
        <UserObject label="&lt;font style=&quot;font-size: 9px;&quot;&gt;Home&lt;/font&gt;" placeholders="1" name="Variable" id="LmptgclhA3fd6WnhmWBI-3">
          <mxCell style="text;html=1;strokeColor=none;fillColor=none;align=center;verticalAlign=middle;whiteSpace=wrap;overflow=hidden;fontStyle=1" vertex="1" parent="WIyWlLk6GJQsqaUBKTNV-1">
            <mxGeometry x="240" y="620" width="80" height="20" as="geometry" />
          </mxCell>
        </UserObject>
        <mxCell id="LmptgclhA3fd6WnhmWBI-4" value="" style="rounded=1;whiteSpace=wrap;html=1;" vertex="1" parent="WIyWlLk6GJQsqaUBKTNV-1">
          <mxGeometry x="90" y="600" width="120" height="230" as="geometry" />
        </mxCell>
        <mxCell id="LmptgclhA3fd6WnhmWBI-5" value="" style="rounded=1;whiteSpace=wrap;html=1;fillColor=#000000;strokeColor=#b85450;" vertex="1" parent="WIyWlLk6GJQsqaUBKTNV-1">
          <mxGeometry x="130" y="610" width="40" height="10" as="geometry" />
        </mxCell>
        <mxCell id="LmptgclhA3fd6WnhmWBI-6" value="" style="rounded=1;whiteSpace=wrap;html=1;" vertex="1" parent="WIyWlLk6GJQsqaUBKTNV-1">
          <mxGeometry x="105" y="700" width="90" height="20" as="geometry" />
        </mxCell>
        <mxCell id="LmptgclhA3fd6WnhmWBI-7" value="" style="rounded=1;whiteSpace=wrap;html=1;" vertex="1" parent="WIyWlLk6GJQsqaUBKTNV-1">
          <mxGeometry x="105" y="730" width="90" height="20" as="geometry" />
        </mxCell>
        <mxCell id="LmptgclhA3fd6WnhmWBI-8" value="Sign In" style="rounded=1;whiteSpace=wrap;html=1;fillColor=#fff2cc;strokeColor=#d6b656;" vertex="1" parent="WIyWlLk6GJQsqaUBKTNV-1">
          <mxGeometry x="105" y="760" width="90" height="20" as="geometry" />
        </mxCell>
        <UserObject label="&lt;font style=&quot;font-size: 7px;&quot;&gt;Sign Up&lt;/font&gt;" link="https://www.draw.io" id="LmptgclhA3fd6WnhmWBI-9">
          <mxCell style="text;html=1;strokeColor=none;fillColor=none;whiteSpace=wrap;align=center;verticalAlign=middle;fontColor=#0000EE;fontStyle=4;" vertex="1" parent="WIyWlLk6GJQsqaUBKTNV-1">
            <mxGeometry x="120" y="770" width="60" height="40" as="geometry" />
          </mxCell>
        </UserObject>
        <mxCell id="LmptgclhA3fd6WnhmWBI-10" value="&lt;span style=&quot;font-size: 15px;&quot;&gt;Get Started!&lt;/span&gt;" style="text;strokeColor=none;fillColor=none;html=1;fontSize=24;fontStyle=1;verticalAlign=middle;align=center;" vertex="1" parent="WIyWlLk6GJQsqaUBKTNV-1">
          <mxGeometry x="100" y="650" width="100" height="40" as="geometry" />
        </mxCell>
        <UserObject label="&lt;font style=&quot;font-size: 9px;&quot;&gt;Email&lt;/font&gt;" placeholders="1" name="Variable" id="LmptgclhA3fd6WnhmWBI-11">
          <mxCell style="text;html=1;strokeColor=none;fillColor=none;align=center;verticalAlign=middle;whiteSpace=wrap;overflow=hidden;" vertex="1" parent="WIyWlLk6GJQsqaUBKTNV-1">
            <mxGeometry x="80" y="700" width="80" height="20" as="geometry" />
          </mxCell>
        </UserObject>
        <UserObject label="&lt;font style=&quot;font-size: 9px;&quot;&gt;Password&lt;/font&gt;" placeholders="1" name="Variable" id="LmptgclhA3fd6WnhmWBI-12">
          <mxCell style="text;html=1;strokeColor=none;fillColor=none;align=center;verticalAlign=middle;whiteSpace=wrap;overflow=hidden;" vertex="1" parent="WIyWlLk6GJQsqaUBKTNV-1">
            <mxGeometry x="90" y="730" width="80" height="20" as="geometry" />
          </mxCell>
        </UserObject>
        <mxCell id="LmptgclhA3fd6WnhmWBI-13" value="" style="sketch=0;pointerEvents=1;shadow=0;dashed=0;html=1;strokeColor=#9673a6;fillColor=#e1d5e7;labelPosition=center;verticalLabelPosition=bottom;verticalAlign=top;outlineConnect=0;align=center;shape=mxgraph.office.concepts.home;fontStyle=1" vertex="1" parent="WIyWlLk6GJQsqaUBKTNV-1">
          <mxGeometry x="229.74" y="810" width="10.26" height="10" as="geometry" />
        </mxCell>
        <mxCell id="LmptgclhA3fd6WnhmWBI-14" value="" style="sketch=0;pointerEvents=1;shadow=0;dashed=0;html=1;strokeColor=none;fillColor=#505050;labelPosition=center;verticalLabelPosition=bottom;verticalAlign=top;outlineConnect=0;align=center;shape=mxgraph.office.concepts.calculator;fontStyle=1" vertex="1" parent="WIyWlLk6GJQsqaUBKTNV-1">
          <mxGeometry x="260" y="810" width="6.95" height="10" as="geometry" />
        </mxCell>
        <mxCell id="LmptgclhA3fd6WnhmWBI-15" value="" style="shape=mxgraph.signs.food.fast_food;html=1;pointerEvents=1;fillColor=#505050;strokeColor=none;verticalLabelPosition=bottom;verticalAlign=top;align=center;fontStyle=1" vertex="1" parent="WIyWlLk6GJQsqaUBKTNV-1">
          <mxGeometry x="288.73" y="810" width="11.27" height="10" as="geometry" />
        </mxCell>
        <mxCell id="LmptgclhA3fd6WnhmWBI-16" value="" style="shape=mxgraph.signs.food.restaurant_2;html=1;pointerEvents=1;fillColor=#505050;strokeColor=none;verticalLabelPosition=bottom;verticalAlign=top;align=center;fontStyle=1" vertex="1" parent="WIyWlLk6GJQsqaUBKTNV-1">
          <mxGeometry x="315" y="810" width="5" height="10" as="geometry" />
        </mxCell>
        <mxCell id="LmptgclhA3fd6WnhmWBI-17" value="" style="verticalLabelPosition=bottom;shadow=0;dashed=0;align=center;html=1;verticalAlign=top;strokeWidth=1;shape=mxgraph.mockup.markup.line;strokeColor=#000000;" vertex="1" parent="WIyWlLk6GJQsqaUBKTNV-1">
          <mxGeometry x="220" y="790" width="120" height="20" as="geometry" />
        </mxCell>
        <mxCell id="LmptgclhA3fd6WnhmWBI-18" value="" style="shape=image;html=1;verticalAlign=top;verticalLabelPosition=bottom;labelBackgroundColor=#ffffff;imageAspect=0;aspect=fixed;image=https://cdn3.iconfinder.com/data/icons/user-interface-169/32/logout-128.png;fontStyle=1" vertex="1" parent="WIyWlLk6GJQsqaUBKTNV-1">
          <mxGeometry x="320" y="625" width="10" height="10" as="geometry" />
        </mxCell>
        <mxCell id="LmptgclhA3fd6WnhmWBI-19" value="&lt;font style=&quot;font-size: 13px;&quot;&gt;Ready to get in&lt;/font&gt;&lt;div style=&quot;line-height: 40%;&quot;&gt;&lt;font style=&quot;font-size: 13px;&quot;&gt;the Zone?&lt;/font&gt;&lt;/div&gt;" style="text;strokeColor=none;fillColor=none;html=1;fontSize=24;fontStyle=1;verticalAlign=middle;align=left;" vertex="1" parent="WIyWlLk6GJQsqaUBKTNV-1">
          <mxGeometry x="229.74" y="680" width="100" height="40" as="geometry" />
        </mxCell>
        <mxCell id="LmptgclhA3fd6WnhmWBI-38" value="" style="rounded=1;whiteSpace=wrap;html=1;" vertex="1" parent="WIyWlLk6GJQsqaUBKTNV-1">
          <mxGeometry x="350" y="600" width="120" height="230" as="geometry" />
        </mxCell>
        <mxCell id="LmptgclhA3fd6WnhmWBI-39" value="" style="rounded=1;whiteSpace=wrap;html=1;fillColor=#000000;strokeColor=#b85450;fontStyle=1" vertex="1" parent="WIyWlLk6GJQsqaUBKTNV-1">
          <mxGeometry x="390" y="610" width="40" height="10" as="geometry" />
        </mxCell>
        <UserObject label="&lt;font style=&quot;font-size: 9px;&quot;&gt;Calculator&lt;/font&gt;" placeholders="1" name="Variable" id="LmptgclhA3fd6WnhmWBI-41">
          <mxCell style="text;html=1;strokeColor=none;fillColor=none;align=center;verticalAlign=middle;whiteSpace=wrap;overflow=hidden;fontStyle=1" vertex="1" parent="WIyWlLk6GJQsqaUBKTNV-1">
            <mxGeometry x="370" y="620" width="80" height="20" as="geometry" />
          </mxCell>
        </UserObject>
        <mxCell id="LmptgclhA3fd6WnhmWBI-42" value="" style="sketch=0;pointerEvents=1;shadow=0;dashed=0;html=1;strokeColor=none;fillColor=#505050;labelPosition=center;verticalLabelPosition=bottom;verticalAlign=top;outlineConnect=0;align=center;shape=mxgraph.office.concepts.home;fontStyle=1" vertex="1" parent="WIyWlLk6GJQsqaUBKTNV-1">
          <mxGeometry x="359.74" y="810" width="10.26" height="10" as="geometry" />
        </mxCell>
        <mxCell id="LmptgclhA3fd6WnhmWBI-43" value="" style="sketch=0;pointerEvents=1;shadow=0;dashed=0;html=1;strokeColor=#9673a6;fillColor=#e1d5e7;labelPosition=center;verticalLabelPosition=bottom;verticalAlign=top;outlineConnect=0;align=center;shape=mxgraph.office.concepts.calculator;fontStyle=1" vertex="1" parent="WIyWlLk6GJQsqaUBKTNV-1">
          <mxGeometry x="390" y="810" width="6.95" height="10" as="geometry" />
        </mxCell>
        <mxCell id="LmptgclhA3fd6WnhmWBI-44" value="" style="shape=mxgraph.signs.food.fast_food;html=1;pointerEvents=1;fillColor=#505050;strokeColor=none;verticalLabelPosition=bottom;verticalAlign=top;align=center;fontStyle=1" vertex="1" parent="WIyWlLk6GJQsqaUBKTNV-1">
          <mxGeometry x="418.73" y="810" width="11.27" height="10" as="geometry" />
        </mxCell>
        <mxCell id="LmptgclhA3fd6WnhmWBI-45" value="" style="shape=mxgraph.signs.food.restaurant_2;html=1;pointerEvents=1;fillColor=#505050;strokeColor=none;verticalLabelPosition=bottom;verticalAlign=top;align=center;fontStyle=1" vertex="1" parent="WIyWlLk6GJQsqaUBKTNV-1">
          <mxGeometry x="445" y="810" width="5" height="10" as="geometry" />
        </mxCell>
        <mxCell id="LmptgclhA3fd6WnhmWBI-46" value="" style="verticalLabelPosition=bottom;shadow=0;dashed=0;align=center;html=1;verticalAlign=top;strokeWidth=1;shape=mxgraph.mockup.markup.line;strokeColor=#000000;" vertex="1" parent="WIyWlLk6GJQsqaUBKTNV-1">
          <mxGeometry x="350" y="790" width="120" height="20" as="geometry" />
        </mxCell>
        <mxCell id="LmptgclhA3fd6WnhmWBI-49" value="" style="rounded=1;whiteSpace=wrap;html=1;" vertex="1" parent="WIyWlLk6GJQsqaUBKTNV-1">
          <mxGeometry x="480" y="600" width="120" height="230" as="geometry" />
        </mxCell>
        <mxCell id="LmptgclhA3fd6WnhmWBI-50" value="" style="rounded=1;whiteSpace=wrap;html=1;fillColor=#000000;strokeColor=#b85450;fontStyle=1" vertex="1" parent="WIyWlLk6GJQsqaUBKTNV-1">
          <mxGeometry x="520" y="610" width="40" height="10" as="geometry" />
        </mxCell>
        <UserObject label="&lt;font style=&quot;font-size: 9px;&quot;&gt;FoodChecker&lt;/font&gt;" placeholders="1" name="Variable" id="LmptgclhA3fd6WnhmWBI-51">
          <mxCell style="text;html=1;strokeColor=none;fillColor=none;align=center;verticalAlign=middle;whiteSpace=wrap;overflow=hidden;fontStyle=1" vertex="1" parent="WIyWlLk6GJQsqaUBKTNV-1">
            <mxGeometry x="500" y="620" width="80" height="20" as="geometry" />
          </mxCell>
        </UserObject>
        <mxCell id="LmptgclhA3fd6WnhmWBI-52" value="" style="sketch=0;pointerEvents=1;shadow=0;dashed=0;html=1;strokeColor=none;fillColor=#505050;labelPosition=center;verticalLabelPosition=bottom;verticalAlign=top;outlineConnect=0;align=center;shape=mxgraph.office.concepts.home;fontStyle=1" vertex="1" parent="WIyWlLk6GJQsqaUBKTNV-1">
          <mxGeometry x="489.74" y="810" width="10.26" height="10" as="geometry" />
        </mxCell>
        <mxCell id="LmptgclhA3fd6WnhmWBI-54" value="" style="shape=mxgraph.signs.food.fast_food;html=1;pointerEvents=1;fillColor=#e1d5e7;strokeColor=#9673a6;verticalLabelPosition=bottom;verticalAlign=top;align=center;fontStyle=1" vertex="1" parent="WIyWlLk6GJQsqaUBKTNV-1">
          <mxGeometry x="548.73" y="810" width="11.27" height="10" as="geometry" />
        </mxCell>
        <mxCell id="LmptgclhA3fd6WnhmWBI-55" value="" style="shape=mxgraph.signs.food.restaurant_2;html=1;pointerEvents=1;fillColor=#505050;strokeColor=none;verticalLabelPosition=bottom;verticalAlign=top;align=center;fontStyle=1" vertex="1" parent="WIyWlLk6GJQsqaUBKTNV-1">
          <mxGeometry x="575" y="810" width="5" height="10" as="geometry" />
        </mxCell>
        <mxCell id="LmptgclhA3fd6WnhmWBI-56" value="" style="verticalLabelPosition=bottom;shadow=0;dashed=0;align=center;html=1;verticalAlign=top;strokeWidth=1;shape=mxgraph.mockup.markup.line;strokeColor=#000000;" vertex="1" parent="WIyWlLk6GJQsqaUBKTNV-1">
          <mxGeometry x="480" y="790" width="120" height="20" as="geometry" />
        </mxCell>
        <mxCell id="LmptgclhA3fd6WnhmWBI-57" value="" style="sketch=0;pointerEvents=1;shadow=0;dashed=0;html=1;strokeColor=none;fillColor=#505050;labelPosition=center;verticalLabelPosition=bottom;verticalAlign=top;outlineConnect=0;align=center;shape=mxgraph.office.concepts.calculator;fontStyle=1" vertex="1" parent="WIyWlLk6GJQsqaUBKTNV-1">
          <mxGeometry x="520" y="810" width="6.95" height="10" as="geometry" />
        </mxCell>
        <mxCell id="LmptgclhA3fd6WnhmWBI-58" value="" style="rounded=1;whiteSpace=wrap;html=1;" vertex="1" parent="WIyWlLk6GJQsqaUBKTNV-1">
          <mxGeometry x="610" y="600" width="120" height="230" as="geometry" />
        </mxCell>
        <mxCell id="LmptgclhA3fd6WnhmWBI-59" value="" style="rounded=1;whiteSpace=wrap;html=1;fillColor=#000000;strokeColor=#b85450;fontStyle=1" vertex="1" parent="WIyWlLk6GJQsqaUBKTNV-1">
          <mxGeometry x="650" y="610" width="40" height="10" as="geometry" />
        </mxCell>
        <UserObject label="&lt;font style=&quot;font-size: 9px;&quot;&gt;NutritionFacts&lt;/font&gt;" placeholders="1" name="Variable" id="LmptgclhA3fd6WnhmWBI-60">
          <mxCell style="text;html=1;strokeColor=none;fillColor=none;align=center;verticalAlign=middle;whiteSpace=wrap;overflow=hidden;fontStyle=1" vertex="1" parent="WIyWlLk6GJQsqaUBKTNV-1">
            <mxGeometry x="630" y="620" width="80" height="20" as="geometry" />
          </mxCell>
        </UserObject>
        <mxCell id="LmptgclhA3fd6WnhmWBI-61" value="" style="sketch=0;pointerEvents=1;shadow=0;dashed=0;html=1;strokeColor=none;fillColor=#505050;labelPosition=center;verticalLabelPosition=bottom;verticalAlign=top;outlineConnect=0;align=center;shape=mxgraph.office.concepts.home;fontStyle=1" vertex="1" parent="WIyWlLk6GJQsqaUBKTNV-1">
          <mxGeometry x="619.74" y="810" width="10.26" height="10" as="geometry" />
        </mxCell>
        <mxCell id="LmptgclhA3fd6WnhmWBI-63" value="" style="shape=mxgraph.signs.food.restaurant_2;html=1;pointerEvents=1;fillColor=#e1d5e7;strokeColor=#9673a6;verticalLabelPosition=bottom;verticalAlign=top;align=center;fontStyle=1" vertex="1" parent="WIyWlLk6GJQsqaUBKTNV-1">
          <mxGeometry x="705" y="810" width="5" height="10" as="geometry" />
        </mxCell>
        <mxCell id="LmptgclhA3fd6WnhmWBI-64" value="" style="verticalLabelPosition=bottom;shadow=0;dashed=0;align=center;html=1;verticalAlign=top;strokeWidth=1;shape=mxgraph.mockup.markup.line;strokeColor=#000000;" vertex="1" parent="WIyWlLk6GJQsqaUBKTNV-1">
          <mxGeometry x="610" y="790" width="120" height="20" as="geometry" />
        </mxCell>
        <mxCell id="LmptgclhA3fd6WnhmWBI-65" value="" style="sketch=0;pointerEvents=1;shadow=0;dashed=0;html=1;strokeColor=none;fillColor=#505050;labelPosition=center;verticalLabelPosition=bottom;verticalAlign=top;outlineConnect=0;align=center;shape=mxgraph.office.concepts.calculator;fontStyle=1" vertex="1" parent="WIyWlLk6GJQsqaUBKTNV-1">
          <mxGeometry x="650" y="810" width="6.95" height="10" as="geometry" />
        </mxCell>
        <mxCell id="LmptgclhA3fd6WnhmWBI-66" value="" style="shape=mxgraph.signs.food.fast_food;html=1;pointerEvents=1;fillColor=#505050;strokeColor=none;verticalLabelPosition=bottom;verticalAlign=top;align=center;fontStyle=1" vertex="1" parent="WIyWlLk6GJQsqaUBKTNV-1">
          <mxGeometry x="678.73" y="810" width="11.27" height="10" as="geometry" />
        </mxCell>
        <mxCell id="LmptgclhA3fd6WnhmWBI-67" value="" style="dashed=0;align=center;fontSize=12;shape=rect;fillColor=#ffffff;strokeColor=#cccccc;whiteSpace=wrap;html=1;" vertex="1" parent="WIyWlLk6GJQsqaUBKTNV-1">
          <mxGeometry x="364.61" y="650" width="90.26" height="20" as="geometry" />
        </mxCell>
        <mxCell id="LmptgclhA3fd6WnhmWBI-68" value="&lt;font style=&quot;font-size: 9px;&quot;&gt;Nutrient&lt;/font&gt;" style="text;fontColor=#000000;verticalAlign=middle;spacingLeft=13;fontSize=14;whiteSpace=wrap;html=1;align=left;" vertex="1" parent="LmptgclhA3fd6WnhmWBI-67">
          <mxGeometry width="90.26" height="20" as="geometry" />
        </mxCell>
        <mxCell id="LmptgclhA3fd6WnhmWBI-69" value="" style="dashed=0;html=1;shape=mxgraph.gmdl.triangle;fillColor=#cccccc;strokeColor=none;" vertex="1" parent="LmptgclhA3fd6WnhmWBI-67">
          <mxGeometry x="1" y="0.5" width="10" height="5" relative="1" as="geometry">
            <mxPoint x="-25" y="-2.5" as="offset" />
          </mxGeometry>
        </mxCell>
        <mxCell id="LmptgclhA3fd6WnhmWBI-71" value="" style="rounded=1;whiteSpace=wrap;html=1;" vertex="1" parent="WIyWlLk6GJQsqaUBKTNV-1">
          <mxGeometry x="363.73" y="700" width="90" height="20" as="geometry" />
        </mxCell>
        <UserObject label="&lt;font style=&quot;font-size: 8px;&quot;&gt;Nutrient Value by label&lt;/font&gt;" placeholders="1" name="Variable" id="LmptgclhA3fd6WnhmWBI-73">
          <mxCell style="text;html=1;strokeColor=none;fillColor=none;align=left;verticalAlign=middle;whiteSpace=wrap;overflow=hidden;fontStyle=0" vertex="1" parent="WIyWlLk6GJQsqaUBKTNV-1">
            <mxGeometry x="361.86" y="680" width="96.27" height="20" as="geometry" />
          </mxCell>
        </UserObject>
        <UserObject label="&lt;font style=&quot;font-size: 8px;&quot;&gt;Food blocks&lt;/font&gt;" placeholders="1" name="Variable" id="LmptgclhA3fd6WnhmWBI-74">
          <mxCell style="text;html=1;strokeColor=none;fillColor=none;align=left;verticalAlign=middle;whiteSpace=wrap;overflow=hidden;" vertex="1" parent="WIyWlLk6GJQsqaUBKTNV-1">
            <mxGeometry x="361.86" y="720" width="96.27" height="20" as="geometry" />
          </mxCell>
        </UserObject>
        <mxCell id="LmptgclhA3fd6WnhmWBI-75" value="" style="rounded=1;whiteSpace=wrap;html=1;" vertex="1" parent="WIyWlLk6GJQsqaUBKTNV-1">
          <mxGeometry x="361.86" y="740" width="90" height="20" as="geometry" />
        </mxCell>
        <mxCell id="LmptgclhA3fd6WnhmWBI-76" value="Calculate" style="rounded=1;whiteSpace=wrap;html=1;fillColor=#fff2cc;strokeColor=#d6b656;" vertex="1" parent="WIyWlLk6GJQsqaUBKTNV-1">
          <mxGeometry x="361.86" y="770" width="90" height="20" as="geometry" />
        </mxCell>
        <UserObject label="&lt;font style=&quot;font-size: 8px;&quot;&gt;Check nutrients for non-packaged food:&lt;/font&gt;" placeholders="1" name="Variable" id="LmptgclhA3fd6WnhmWBI-77">
          <mxCell style="text;html=1;strokeColor=none;fillColor=none;align=left;verticalAlign=middle;whiteSpace=wrap;overflow=hidden;fontStyle=0" vertex="1" parent="WIyWlLk6GJQsqaUBKTNV-1">
            <mxGeometry x="491.86" y="665" width="96.27" height="40" as="geometry" />
          </mxCell>
        </UserObject>
        <mxCell id="LmptgclhA3fd6WnhmWBI-78" value="" style="rounded=1;whiteSpace=wrap;html=1;" vertex="1" parent="WIyWlLk6GJQsqaUBKTNV-1">
          <mxGeometry x="491.86" y="705" width="90" height="20" as="geometry" />
        </mxCell>
        <mxCell id="LmptgclhA3fd6WnhmWBI-79" value="Search" style="rounded=1;whiteSpace=wrap;html=1;fillColor=#fff2cc;strokeColor=#d6b656;" vertex="1" parent="WIyWlLk6GJQsqaUBKTNV-1">
          <mxGeometry x="491.86" y="730" width="90" height="20" as="geometry" />
        </mxCell>
        <UserObject label="&lt;font style=&quot;font-size: 8px;&quot;&gt;Enter an ingredient list:&lt;/font&gt;" placeholders="1" name="Variable" id="LmptgclhA3fd6WnhmWBI-80">
          <mxCell style="text;html=1;strokeColor=none;fillColor=none;align=left;verticalAlign=middle;whiteSpace=wrap;overflow=hidden;fontStyle=0" vertex="1" parent="WIyWlLk6GJQsqaUBKTNV-1">
            <mxGeometry x="620" y="635" width="96.27" height="40" as="geometry" />
          </mxCell>
        </UserObject>
        <mxCell id="LmptgclhA3fd6WnhmWBI-83" value="" style="rounded=1;whiteSpace=wrap;html=1;" vertex="1" parent="WIyWlLk6GJQsqaUBKTNV-1">
          <mxGeometry x="620" y="670" width="90" height="30" as="geometry" />
        </mxCell>
        <mxCell id="LmptgclhA3fd6WnhmWBI-84" value="Analyse" style="rounded=1;whiteSpace=wrap;html=1;fillColor=#fff2cc;strokeColor=#d6b656;" vertex="1" parent="WIyWlLk6GJQsqaUBKTNV-1">
          <mxGeometry x="620" y="710" width="90" height="20" as="geometry" />
        </mxCell>
        <mxCell id="LmptgclhA3fd6WnhmWBI-85" value="" style="shape=image;html=1;verticalAlign=top;verticalLabelPosition=bottom;labelBackgroundColor=#ffffff;imageAspect=0;aspect=fixed;image=https://cdn4.iconfinder.com/data/icons/essential-app-2/16/pie-chart-stat-graph-128.png;imageBackground=default;" vertex="1" parent="WIyWlLk6GJQsqaUBKTNV-1">
          <mxGeometry x="620" y="740" width="40" height="40" as="geometry" />
        </mxCell>
        <UserObject label="&lt;ul&gt;&lt;li&gt;&lt;font style=&quot;font-size: 8px;&quot;&gt;30 % Proteins&lt;/font&gt;&lt;/li&gt;&lt;li&gt;&lt;font style=&quot;font-size: 8px;&quot;&gt;40 % Carbs&lt;/font&gt;&lt;/li&gt;&lt;li&gt;&lt;span style=&quot;font-size: 8px;&quot;&gt;30 % Fats&lt;/span&gt;&lt;/li&gt;&lt;/ul&gt;" placeholders="1" name="Variable" id="LmptgclhA3fd6WnhmWBI-86">
          <mxCell style="text;html=1;strokeColor=none;fillColor=none;align=left;verticalAlign=middle;whiteSpace=wrap;overflow=hidden;fontStyle=0" vertex="1" parent="WIyWlLk6GJQsqaUBKTNV-1">
            <mxGeometry x="634.37" y="720" width="100" height="70" as="geometry" />
          </mxCell>
        </UserObject>
      </root>
    </mxGraphModel>
  </diagram>
</mxfile>
